# Blender 4.2.1 LTS
# www.blender.org
mtllib открытая.mtl
o Куб
v -0.152485 1.121161 -0.004647
v 0.192717 1.475879 -0.004647
v 0.243114 1.689571 -0.004647
v 0.292339 1.728537 -0.004647
v -0.408456 1.036801 -0.004647
v -0.378132 1.074101 -0.004647
v -0.374723 -0.657051 -0.004647
v -0.408456 -0.623319 -0.004647
v 2.045177 -0.612864 -0.004647
v 2.000990 -0.657051 -0.004647
v 1.998984 1.728537 -0.004647
v 2.045177 1.682344 -0.004647
v 0.157065 1.540897 -0.006715
v -0.219010 1.154454 -0.006715
v 0.265597 1.816152 -0.006715
v 0.211969 1.773700 -0.006715
v -0.464838 1.103187 -0.006715
v -0.497874 1.062551 -0.006715
v -0.497874 -0.746041 -0.006715
v -0.461124 -0.782791 -0.006715
v 2.127060 -0.782791 -0.006715
v 2.175200 -0.734652 -0.006715
v 2.175200 1.765827 -0.006715
v 2.124875 1.816152 -0.006715
v -0.219010 1.154454 0.018472
v 0.157065 1.540897 0.018472
v 0.265597 1.816152 0.018472
v 0.211969 1.773700 0.018472
v -0.497874 1.062551 0.018472
v -0.464838 1.103187 0.018472
v -0.461124 -0.782791 0.018472
v -0.497874 -0.746041 0.018472
v 2.127060 -0.782791 0.018472
v 2.175200 -0.734652 0.018472
v 2.124875 1.816152 0.018472
v 2.175200 1.765827 0.018472
v 0.192937 1.475535 -0.028792
v -0.152265 1.120817 -0.028792
v -0.464618 1.102843 -0.030859
v -0.377912 1.073758 -0.028792
v 0.292560 1.728194 -0.028792
v 0.243334 1.689227 -0.028792
v -0.408236 1.036458 -0.028792
v -0.497653 1.062207 -0.030859
v 2.125095 1.815808 -0.030859
v 1.999204 1.728194 -0.028792
v 0.265817 1.815808 -0.030859
v -0.408236 -0.623662 -0.028792
v 2.045398 -0.613207 -0.028792
v 2.175420 -0.734995 -0.030859
v 2.045398 1.682001 -0.028792
v 0.212189 1.773357 -0.030859
v 0.157285 1.540554 -0.030859
v -0.218790 1.154111 -0.030859
v -0.497653 -0.746385 -0.030859
v 2.175420 1.765484 -0.030859
v -0.152485 1.121161 0.041591
v 0.192717 1.475879 0.041591
v 0.243114 1.689571 0.041591
v 0.292339 1.728537 0.041591
v -0.408456 1.036801 0.041591
v -0.378132 1.074101 0.041591
v -0.374723 -0.657051 0.041591
v -0.408456 -0.623319 0.041591
v 2.045177 -0.612864 0.041591
v 2.000990 -0.657051 0.041591
v 1.998984 1.728537 0.041591
v 2.045177 1.682344 0.041591
v 0.157065 1.540897 0.043658
v -0.219010 1.154454 0.043658
v 0.265597 1.816152 0.043658
v 0.211969 1.773700 0.043658
v -0.464838 1.103187 0.043658
v -0.497874 1.062551 0.043658
v -0.497874 -0.746041 0.043658
v -0.461124 -0.782791 0.043658
v 2.127060 -0.782791 0.043658
v 2.175200 -0.734652 0.043658
v 2.175200 1.765827 0.043658
v 2.124875 1.816152 0.043658
v 0.192937 1.475535 0.065735
v -0.152265 1.120817 0.065735
v -0.464618 1.102843 0.067803
v -0.377912 1.073758 0.065735
v 0.292560 1.728194 0.065735
v 0.243334 1.689227 0.065735
v -0.408236 1.036458 0.065735
v -0.497653 1.062207 0.067803
v 2.125095 1.815808 0.067803
v 1.999204 1.728194 0.065735
v 0.265817 1.815808 0.067803
v -0.408236 -0.623662 0.065735
v 2.045398 -0.613207 0.065735
v 2.175420 -0.734995 0.067803
v 2.045398 1.682001 0.065735
v 0.212189 1.773357 0.067803
v 0.157285 1.540554 0.067803
v -0.218790 1.154111 0.067803
v -0.497653 -0.746385 0.067803
v 2.175420 1.765484 0.067803
vn -0.0000 -0.0000 -1.0000
vn -0.0000 0.0164 -0.9999
vn 0.9732 -0.2295 0.0121
vn -0.0000 -0.9999 0.0142
vn -0.0082 0.0082 -0.9999
vn 0.8080 -0.5890 0.0158
vn -0.6207 0.7841 -0.0000
vn -0.9733 0.2295 -0.0000
vn -0.2042 0.9789 -0.0000
vn -1.0000 -0.0000 -0.0000
vn 0.7071 -0.7071 -0.0000
vn -0.7758 0.6307 -0.0161
vn 1.0000 -0.0000 0.0091
vn 0.6206 -0.7840 0.0168
vn -0.9732 0.2295 -0.0121
vn -0.6206 0.7840 -0.0168
vn 0.2041 -0.9788 0.0158
vn 0.0097 0.0097 -0.9999
vn -0.0000 1.0000 -0.0000
vn 0.7071 0.7071 -0.0000
vn -0.0000 -1.0000 -0.0000
vn -0.7071 -0.7071 -0.0000
vn -0.7759 0.6308 -0.0000
vn -0.7167 0.6974 -0.0000
vn 1.0000 -0.0000 -0.0000
vn 0.0187 -0.0152 -0.9997
vn -0.0000 -0.0236 -0.9997
vn 0.0405 -0.0096 -0.9991
vn -0.0159 -0.0000 -0.9999
vn -0.0097 -0.0097 -0.9999
vn 0.0150 -0.0190 -0.9997
vn 0.0231 -0.0000 -0.9997
vn 0.0209 -0.0203 -0.9996
vn 0.0091 -0.0438 -0.9990
vn -1.0000 -0.0000 -0.0091
vn 0.7071 0.7071 -0.0036
vn -0.2041 0.9788 -0.0158
vn 0.7758 -0.6307 0.0161
vn -0.7166 0.6973 -0.0165
vn -0.6836 -0.7299 0.0041
vn -0.0000 0.9999 -0.0142
vn 0.7166 -0.6973 0.0165
vn -0.7071 -0.7071 0.0036
vn -0.0000 -0.0000 1.0000
vn -0.0000 0.0164 0.9999
vn 0.9732 -0.2295 -0.0121
vn -0.0000 -0.9999 -0.0142
vn -0.0082 0.0082 0.9999
vn 0.8080 -0.5890 -0.0158
vn -0.7758 0.6307 0.0161
vn 1.0000 -0.0000 -0.0091
vn 0.6206 -0.7840 -0.0168
vn -0.9732 0.2295 0.0121
vn -0.6206 0.7840 0.0168
vn 0.2041 -0.9788 -0.0158
vn 0.0097 0.0097 0.9999
vn 0.0187 -0.0152 0.9997
vn -0.0000 -0.0236 0.9997
vn 0.0405 -0.0096 0.9991
vn -0.0159 -0.0000 0.9999
vn -0.0097 -0.0097 0.9999
vn 0.0150 -0.0190 0.9997
vn 0.0231 -0.0000 0.9997
vn 0.0209 -0.0203 0.9996
vn 0.0091 -0.0438 0.9990
vn -1.0000 -0.0000 0.0091
vn 0.7071 0.7071 0.0036
vn -0.2041 0.9788 0.0158
vn 0.7758 -0.6307 -0.0161
vn -0.7166 0.6973 0.0165
vn -0.6836 -0.7299 -0.0041
vn -0.0000 0.9999 0.0142
vn 0.7166 -0.6973 -0.0165
vn -0.7071 -0.7071 -0.0036
vt 0.706117 0.717773
vt 0.709286 0.714289
vt 0.875714 0.711087
vt 0.879512 0.714055
vt 0.884664 0.736585
vt 0.920014 0.771948
vt 0.941121 0.777274
vt 0.944908 0.782214
vt 0.942274 0.951406
vt 0.937624 0.955914
vt 0.710084 0.952372
vt 0.705953 0.947780
vt 0.691001 0.960460
vt 0.691001 0.708837
vt 0.916168 0.426659
vt 0.916163 0.448391
vt 0.812788 0.448391
vt 0.812794 0.426659
vt 0.916133 0.251518
vt 0.916169 0.420445
vt 0.812795 0.420445
vt 0.812759 0.251518
vt 0.695375 0.965613
vt 0.916107 0.689279
vt 0.907252 0.704308
vt 0.803878 0.704308
vt 0.812733 0.689279
vt 0.108072 0.561181
vt 0.000238 0.561181
vt 0.000238 0.554411
vt 0.108072 0.554411
vt 0.000238 0.530735
vt 0.108072 0.530735
vt 0.108072 0.477361
vt 0.000238 0.477361
vt 0.000238 0.452505
vt 0.108072 0.452505
vt 0.108072 0.268304
vt 0.108072 0.447322
vt 0.000238 0.447322
vt 0.000238 0.268304
vt 0.108072 0.006976
vt 0.000238 0.006976
vt 0.000238 0.000238
vt 0.108072 0.000238
vt 0.397984 0.168160
vt 0.399470 0.173120
vt 0.307435 0.200267
vt 0.306170 0.195866
vt 0.916161 0.524958
vt 0.812787 0.524958
vt 0.420893 0.246531
vt 0.427768 0.270054
vt 0.334288 0.296468
vt 0.323156 0.276758
vt 0.429623 0.276730
vt 0.336034 0.302101
vt 0.916158 0.497384
vt 0.916161 0.520199
vt 0.812787 0.520199
vt 0.812784 0.497384
vt 0.694398 0.704783
vt 0.000238 0.745216
vt 0.108072 0.745216
vt 0.108072 0.752260
vt 0.000238 0.752260
vt 0.000238 0.263159
vt 0.108072 0.263159
vt 0.000238 0.999762
vt 0.108072 0.999762
vt 0.297708 0.206563
vt 0.296209 0.201955
vt 0.340230 0.456787
vt 0.324558 0.302965
vt 0.353848 0.463483
vt 0.322821 0.296782
vt 0.311302 0.277454
vt 0.216382 0.656219
vt 0.338246 0.463326
vt 0.352814 0.469333
vt 0.224089 0.676799
vt 0.216381 0.068123
vt 0.221115 0.050967
vt 0.298138 0.229695
vt 0.308277 0.224052
vt 0.916056 0.017868
vt 0.916131 0.245052
vt 0.812756 0.245052
vt 0.812682 0.017868
vt 0.453216 0.475994
vt 0.452161 0.483646
vt 0.406550 0.197544
vt 0.907197 0.000238
vt 0.803823 0.000238
vt 0.332850 0.735119
vt 0.319187 0.000238
vt 0.455172 0.748584
vt 0.455336 0.978591
vt 0.451205 0.983183
vt 0.223666 0.986725
vt 0.219015 0.982217
vt 0.216381 0.813025
vt 0.220168 0.808085
vt 0.241275 0.802759
vt 0.276625 0.767396
vt 0.281778 0.744866
vt 0.285576 0.741898
vt 0.452004 0.745100
vt 0.470288 0.739648
vt 0.470288 0.991271
vt 0.803347 0.277886
vt 0.699973 0.277886
vt 0.699967 0.256154
vt 0.803341 0.256154
vt 0.803312 0.453027
vt 0.699938 0.453027
vt 0.699973 0.284100
vt 0.803347 0.284100
vt 0.465914 0.996424
vt 0.803286 0.015266
vt 0.699911 0.015266
vt 0.691057 0.000238
vt 0.794431 0.000238
vt 0.215906 0.554411
vt 0.215906 0.561181
vt 0.215906 0.530735
vt 0.215906 0.452505
vt 0.215906 0.477361
vt 0.215906 0.268304
vt 0.215906 0.447322
vt 0.215906 0.000238
vt 0.215906 0.006976
vt 0.635294 0.567196
vt 0.543480 0.539491
vt 0.544745 0.535089
vt 0.636779 0.562236
vt 0.803340 0.179588
vt 0.699965 0.179588
vt 0.658203 0.488826
vt 0.560466 0.458599
vt 0.571598 0.438889
vt 0.665078 0.465303
vt 0.573344 0.433256
vt 0.666933 0.458626
vt 0.803337 0.207162
vt 0.699963 0.207162
vt 0.699966 0.184346
vt 0.803340 0.184346
vt 0.466891 0.735594
vt 0.215906 0.745216
vt 0.215906 0.752260
vt 0.215906 0.263159
vt 0.215906 0.999762
vt 0.535018 0.528794
vt 0.533519 0.533402
vt 0.577539 0.278569
vt 0.591158 0.271874
vt 0.561868 0.432392
vt 0.560131 0.438575
vt 0.548612 0.457903
vt 0.453691 0.079137
vt 0.461399 0.058558
vt 0.590124 0.266023
vt 0.575556 0.272031
vt 0.458425 0.684390
vt 0.453691 0.667234
vt 0.545587 0.511305
vt 0.535448 0.505661
vt 0.803235 0.686677
vt 0.699860 0.686677
vt 0.699935 0.459493
vt 0.803309 0.459493
vt 0.690526 0.259363
vt 0.689471 0.251710
vt 0.643860 0.537812
vt 0.794375 0.704308
vt 0.691001 0.704308
vt 0.570160 0.000238
vt 0.556497 0.735119
s 0
usemtl боковая
f 7/1/1 8/2/1 5/3/1 6/4/1 1/5/1 2/6/1 3/7/1 4/8/1 11/9/1 12/10/1 9/11/1 10/12/1
f 7/1/2 10/12/2 21/13/2 20/14/2
f 3/15/3 2/16/3 37/17/3 42/18/3
f 11/19/4 4/20/4 41/21/4 46/22/4
f 10/12/5 9/11/5 22/23/5 21/13/5
f 8/24/6 19/25/6 55/26/6 48/27/6
f 27/28/7 15/29/7 16/30/7 28/31/7
f 28/31/8 16/30/8 13/32/8 26/33/8
f 25/34/9 14/35/9 17/36/9 30/37/9
f 32/38/10 29/39/10 18/40/10 19/41/10
f 33/42/11 21/43/11 22/44/11 34/45/11
f 18/46/12 17/47/12 39/48/12 44/49/12
f 5/50/13 8/24/13 48/27/13 43/51/13
f 4/20/14 3/15/14 42/18/14 41/21/14
f 13/52/15 16/53/15 52/54/15 53/55/15
f 16/53/16 15/56/16 47/57/16 52/54/16
f 1/58/17 6/59/17 40/60/17 38/61/17
f 8/2/18 7/1/18 20/14/18 19/62/18
f 24/63/19 15/29/19 27/28/19 35/64/19
f 24/63/20 35/64/20 36/65/20 23/66/20
f 20/67/21 21/43/21 33/42/21 31/68/21
f 20/67/22 31/68/22 32/38/22 19/41/22
f 18/40/23 29/39/23 30/37/23 17/36/23
f 14/35/24 25/34/24 26/33/24 13/32/24
f 22/69/25 23/66/25 36/65/25 34/70/25
f 40/71/26 43/72/26 44/49/26 39/48/26
f 46/73/27 41/74/27 47/57/27 45/75/27
f 42/76/28 37/77/28 53/55/28 52/54/28
f 49/78/29 51/79/29 56/80/29 50/81/29
f 51/79/30 46/73/30 45/75/30 56/80/30
f 41/74/31 42/76/31 52/54/31 47/57/31
f 43/72/32 48/82/32 55/83/32 44/49/32
f 37/77/33 38/84/33 54/85/33 53/55/33
f 38/84/34 40/71/34 39/48/34 54/85/34
f 9/86/35 12/87/35 51/88/35 49/89/35
f 24/90/36 23/91/36 56/80/36 45/75/36
f 17/47/37 14/92/37 54/85/37 39/48/37
f 6/59/38 5/50/38 43/51/38 40/60/38
f 14/92/39 13/52/39 53/55/39 54/85/39
f 22/93/40 9/86/40 49/89/40 50/94/40
f 15/56/41 24/90/41 45/75/41 47/57/41
f 23/91/13 22/95/13 50/81/13 56/80/13
f 2/16/42 1/58/42 38/61/42 37/17/42
f 12/87/43 11/19/43 46/22/43 51/88/43
f 19/96/35 18/46/35 44/49/35 55/83/35
f 63/97/44 66/98/44 65/99/44 68/100/44 67/101/44 60/102/44 59/103/44 58/104/44 57/105/44 62/106/44 61/107/44 64/108/44
f 63/97/45 76/109/45 77/110/45 66/98/45
f 59/111/46 86/112/46 81/113/46 58/114/46
f 67/115/47 90/116/47 85/117/47 60/118/47
f 66/98/48 77/110/48 78/119/48 65/99/48
f 64/120/49 92/121/49 99/122/49 75/123/49
f 27/28/7 28/31/7 72/124/7 71/125/7
f 28/31/8 26/33/8 69/126/8 72/124/8
f 25/34/9 30/37/9 73/127/9 70/128/9
f 32/38/10 75/129/10 74/130/10 29/39/10
f 33/42/11 34/45/11 78/131/11 77/132/11
f 74/133/50 88/134/50 83/135/50 73/136/50
f 61/137/51 87/138/51 92/121/51 64/120/51
f 60/118/52 85/117/52 86/112/52 59/111/52
f 69/139/53 97/140/53 96/141/53 72/142/53
f 72/142/54 96/141/54 91/143/54 71/144/54
f 57/145/55 82/146/55 84/147/55 62/148/55
f 64/108/56 75/149/56 76/109/56 63/97/56
f 80/150/19 35/64/19 27/28/19 71/125/19
f 80/150/20 79/151/20 36/65/20 35/64/20
f 76/152/21 31/68/21 33/42/21 77/132/21
f 76/152/22 75/129/22 32/38/22 31/68/22
f 74/130/23 73/127/23 30/37/23 29/39/23
f 70/128/24 69/126/24 26/33/24 25/34/24
f 78/153/25 34/70/25 36/65/25 79/151/25
f 84/154/57 83/135/57 88/134/57 87/155/57
f 90/156/58 89/157/58 91/143/58 85/158/58
f 86/159/59 96/141/59 97/140/59 81/160/59
f 93/161/60 94/162/60 100/163/60 95/164/60
f 95/164/61 100/163/61 89/157/61 90/156/61
f 85/158/62 91/143/62 96/141/62 86/159/62
f 87/155/63 88/134/63 99/165/63 92/166/63
f 81/160/64 97/140/64 98/167/64 82/168/64
f 82/168/65 98/167/65 83/135/65 84/154/65
f 65/169/66 93/170/66 95/171/66 68/172/66
f 80/173/67 89/157/67 100/163/67 79/174/67
f 73/136/68 83/135/68 98/167/68 70/175/68
f 62/148/69 84/147/69 87/138/69 61/137/69
f 70/175/70 98/167/70 97/140/70 69/139/70
f 78/176/71 94/177/71 93/170/71 65/169/71
f 71/144/72 91/143/72 89/157/72 80/173/72
f 79/174/51 100/163/51 94/162/51 78/178/51
f 58/114/73 81/113/73 82/146/73 57/145/73
f 68/172/74 95/171/74 90/116/74 67/115/74
f 75/179/66 99/165/66 88/134/66 74/133/66
