# Blender 4.2.1 LTS
# www.blender.org
mtllib бутылка2.2.mtl
o Плоскость.013
v 0.084988 0.010348 0.071832
v 0.071832 0.010348 0.084988
v 0.071832 0.010348 -0.084988
v 0.084988 0.010348 -0.071832
v -0.071832 0.010348 0.084988
v -0.084988 0.010348 0.071832
v -0.084988 0.010348 -0.071832
v -0.071832 0.010348 -0.084988
v 0.019559 0.330140 0.006009
v 0.006009 0.330140 0.019559
v 0.006009 0.330140 -0.019559
v 0.019559 0.330140 -0.006009
v -0.006009 0.330140 0.019559
v -0.019559 0.330140 0.006009
v -0.019559 0.330140 -0.006009
v -0.006009 0.330140 -0.019559
v 0.006063 0.433584 0.019559
v 0.019559 0.433584 0.006063
v 0.019559 0.433584 -0.006063
v 0.006063 0.433584 -0.019559
v -0.019559 0.433584 0.006063
v -0.006063 0.433584 0.019559
v -0.006063 0.433584 -0.019559
v -0.019559 0.433584 -0.006063
v 0.084988 0.269553 0.071783
v 0.078810 0.299428 0.065256
v 0.065256 0.299428 0.078810
v 0.071783 0.269553 0.084988
v 0.071783 0.269553 -0.084988
v 0.065256 0.299428 -0.078810
v 0.078810 0.299428 -0.065256
v 0.084988 0.269553 -0.071783
v -0.071783 0.269553 0.084988
v -0.065256 0.299428 0.078810
v -0.078810 0.299428 0.065256
v -0.084988 0.269553 0.071783
v -0.084988 0.269553 -0.071783
v -0.078810 0.299428 -0.065256
v -0.065256 0.299428 -0.078810
v -0.071783 0.269553 -0.084988
v 0.062159 0.313767 0.048553
v 0.044129 0.323508 0.030520
v 0.030520 0.323508 0.044129
v 0.048553 0.313767 0.062159
v 0.048553 0.313767 -0.062159
v 0.030520 0.323508 -0.044129
v 0.044129 0.323508 -0.030520
v 0.062159 0.313767 -0.048553
v -0.048553 0.313767 0.062159
v -0.030520 0.323508 0.044129
v -0.044129 0.323508 0.030520
v -0.062159 0.313767 0.048553
v -0.062159 0.313767 -0.048553
v -0.044129 0.323508 -0.030520
v -0.030520 0.323508 -0.044129
v -0.048553 0.313767 -0.062159
v -0.073577 0.000000 -0.087052
v -0.087052 0.000000 -0.073577
v 0.087052 0.000000 -0.073577
v 0.073577 0.000000 -0.087052
v 0.073577 0.000000 0.087052
v 0.087052 0.000000 0.073577
v -0.087052 0.000000 0.073577
v -0.073577 0.000000 0.087052
v -0.073526 0.279901 -0.087052
v -0.087052 0.279901 -0.073526
v 0.087052 0.279901 -0.073526
v 0.073526 0.279901 -0.087052
v 0.073526 0.279901 0.087052
v 0.087052 0.279901 0.073526
v -0.087052 0.279901 0.073526
v -0.073526 0.279901 0.087052
vn 0.9206 0.1246 0.3702
vn 0.3702 0.1246 0.9206
vn 0.3702 0.1246 -0.9206
vn 0.9206 0.1246 -0.3702
vn -0.3702 0.1246 0.9206
vn -0.9206 0.1246 0.3702
vn -0.9206 0.1246 -0.3702
vn -0.3702 0.1246 -0.9206
vn 0.6564 0.7127 0.2474
vn 0.2474 0.7127 0.6564
vn 0.2474 0.7127 -0.6564
vn 0.6564 0.7127 -0.2474
vn -0.2474 0.7127 0.6564
vn -0.6564 0.7127 0.2474
vn -0.6564 0.7127 -0.2474
vn -0.2474 0.7127 -0.6564
vn 0.2972 0.6302 0.7173
vn 0.7173 0.6302 0.2972
vn 0.7173 0.6302 -0.2972
vn 0.2972 0.6302 -0.7173
vn -0.7173 0.6302 0.2972
vn -0.2972 0.6302 0.7173
vn -0.2972 0.6302 -0.7173
vn -0.7173 0.6302 -0.2972
vn 0.9206 -0.1245 0.3701
vn 0.7078 0.6502 0.2762
vn 0.2762 0.6502 0.7078
vn 0.3701 -0.1245 0.9206
vn 0.3701 -0.1245 -0.9206
vn 0.2762 0.6502 -0.7078
vn 0.7078 0.6502 -0.2762
vn 0.9206 -0.1245 -0.3701
vn -0.3701 -0.1245 0.9206
vn -0.2762 0.6502 0.7078
vn -0.7078 0.6502 0.2762
vn -0.9206 -0.1245 0.3701
vn -0.9206 -0.1245 -0.3701
vn -0.7078 0.6502 -0.2762
vn -0.2762 0.6502 -0.7078
vn -0.3701 -0.1245 -0.9206
vn 0.4685 0.8686 0.1613
vn 0.3102 0.9455 0.0985
vn 0.0985 0.9455 0.3102
vn 0.1613 0.8686 0.4685
vn 0.1613 0.8686 -0.4685
vn 0.0985 0.9455 -0.3102
vn 0.3102 0.9455 -0.0985
vn 0.4685 0.8686 -0.1613
vn -0.1613 0.8686 0.4685
vn -0.0985 0.9455 0.3102
vn -0.3102 0.9455 0.0985
vn -0.4685 0.8686 0.1613
vn -0.4685 0.8686 -0.1613
vn -0.3102 0.9455 -0.0985
vn -0.0985 0.9455 -0.3102
vn -0.1613 0.8686 -0.4685
vn -0.3364 -0.5363 -0.7741
vn -0.7741 -0.5363 -0.3364
vn 0.7741 -0.5363 -0.3364
vn 0.3364 -0.5363 -0.7741
vn 0.3364 -0.5363 0.7741
vn 0.7741 -0.5363 0.3364
vn -0.7741 -0.5363 0.3364
vn -0.3364 -0.5363 0.7741
vn -0.4056 0.1223 -0.9058
vn -0.9058 0.1223 -0.4056
vn 0.9058 0.1223 -0.4056
vn 0.4056 0.1223 -0.9058
vn 0.4056 0.1223 0.9058
vn 0.9058 0.1223 0.4056
vn -0.9058 0.1223 0.4056
vn -0.4056 0.1223 0.9058
vt 0.332902 0.624937
vt 0.332873 0.809294
vt 0.000249 0.809179
vt 0.000278 0.624948
vt 0.332913 0.416706
vt 0.000289 0.416753
vt 0.000289 0.392788
vt 0.332913 0.392832
vt 0.604676 0.834365
vt 0.443428 0.879617
vt 0.456445 0.846677
vt 0.576421 0.813007
vt 0.637314 0.805847
vt 0.620023 0.788555
vt 0.620023 0.599721
vt 0.637314 0.582429
vt 0.826149 0.582429
vt 0.843441 0.599721
vt 0.843441 0.788555
vt 0.826149 0.805847
vt 0.576421 0.649039
vt 0.604676 0.627681
vt 0.619535 0.647284
vt 0.591337 0.668717
vt 0.420539 0.870608
vt 0.433468 0.837633
vt 0.812376 0.846367
vt 0.812371 0.830946
vt 0.945114 0.830828
vt 0.945120 0.846388
vt 0.332868 0.000244
vt 0.332899 0.184601
vt 0.000275 0.184593
vt 0.000244 0.000363
vt 0.119548 0.854180
vt 0.086891 0.885634
vt 0.069811 0.867942
vt 0.102395 0.836412
vt 0.332902 0.208475
vt 0.000278 0.208558
vt 0.812383 0.886380
vt 0.812382 0.870959
vt 0.945125 0.870881
vt 0.945126 0.886442
vt 0.005754 0.936517
vt 0.036117 0.902843
vt 0.054399 0.919290
vt 0.024114 0.953034
vt 0.086891 0.901055
vt 0.119548 0.932509
vt 0.102395 0.950278
vt 0.069811 0.918748
vt 0.000244 0.858381
vt 0.035032 0.887460
vt 0.812358 0.966406
vt 0.812366 0.950985
vt 0.945110 0.950989
vt 0.945101 0.966549
vt 0.614208 0.506326
vt 0.638701 0.506326
vt 0.649704 0.517329
vt 0.649704 0.541822
vt 0.638701 0.552825
vt 0.614208 0.552825
vt 0.603205 0.541822
vt 0.603205 0.517329
vt 0.812376 0.926393
vt 0.812380 0.910972
vt 0.945124 0.910935
vt 0.945120 0.926496
vt 0.591337 0.793329
vt 0.619535 0.814762
vt 0.335891 0.703113
vt 0.371133 0.706651
vt 0.368633 0.731217
vt 0.333401 0.727584
vt 0.332904 0.601063
vt 0.000280 0.600983
vt 0.016105 0.839451
vt 0.050826 0.868611
vt 0.443428 0.582429
vt 0.456445 0.615369
vt 0.024114 0.833656
vt 0.054399 0.867399
vt 0.812358 0.806354
vt 0.945102 0.806334
vt 0.362563 0.290973
vt 0.363714 0.315544
vt 0.334550 0.316885
vt 0.333401 0.292365
vt 0.431696 0.468604
vt 0.449154 0.485932
vt 0.428569 0.506635
vt 0.411147 0.489343
vt 0.602718 0.029178
vt 0.578337 0.032439
vt 0.574491 0.003499
vt 0.598821 0.000244
vt 0.431696 0.113342
vt 0.415934 0.132226
vt 0.393536 0.113500
vt 0.409265 0.094654
vt 0.769258 0.960752
vt 0.785572 0.942210
vt 0.811870 0.965351
vt 0.795560 0.983889
vt 0.785572 0.863881
vt 0.769258 0.845339
vt 0.795560 0.822201
vt 0.811870 0.840739
vt 0.662415 0.859055
vt 0.651313 0.881116
vt 0.620023 0.865368
vt 0.631122 0.843311
vt 0.671098 0.956905
vt 0.691567 0.970725
vt 0.671962 0.999756
vt 0.651498 0.985939
vt 0.602718 0.552768
vt 0.601594 0.581941
vt 0.691567 0.835365
vt 0.671962 0.806334
vt 0.332868 0.833168
vt 0.000244 0.833144
vt 0.833230 0.033327
vt 0.816065 0.016060
vt 0.825502 0.000244
vt 0.847580 0.026037
vt 0.634429 0.021795
vt 0.618175 0.040161
vt 0.603205 0.033062
vt 0.624389 0.007670
vt 0.617604 0.223143
vt 0.633772 0.239995
vt 0.626664 0.254430
vt 0.603205 0.232130
vt 0.809232 0.234263
vt 0.825621 0.216413
vt 0.840752 0.225538
vt 0.816923 0.247557
vt 0.815818 0.491224
vt 0.832447 0.473571
vt 0.847546 0.480652
vt 0.825406 0.505838
vt 0.617471 0.469433
vt 0.634399 0.487507
vt 0.624487 0.502796
vt 0.603205 0.476689
vt 0.634246 0.268418
vt 0.618547 0.285454
vt 0.603205 0.276653
vt 0.627071 0.254917
vt 0.826520 0.291240
vt 0.809407 0.273815
vt 0.816974 0.259627
vt 0.840682 0.281934
s 1
usemtl бутылка_2
f 5/1/5 2/2/2 28/3/28 33/4/33
f 7/5/7 37/6/37 40/7/40 8/8/8
f 38/9/38 35/10/35 52/11/52 53/12/53
f 62/13/62 61/14/61 64/15/64 63/16/63 58/17/58 57/18/57 60/19/60 59/20/59
f 48/21/48 31/22/31 30/23/30 45/24/45
f 52/11/52 35/10/35 34/25/34 49/26/49
f 13/27/13 10/28/10 17/29/17 22/30/22
f 1/31/1 4/32/4 32/33/32 25/34/25
f 46/35/46 11/36/11 12/37/12 47/38/47
f 32/33/32 4/32/4 3/39/3 29/40/29
f 15/41/15 14/42/14 21/43/21 24/44/24
f 50/45/50 13/46/13 14/47/14 51/48/51
f 16/49/16 55/50/55 54/51/54 15/52/15
f 50/45/50 43/53/43 10/54/10 13/46/13
f 9/55/9 12/56/12 19/57/19 18/58/18
f 17/59/17 18/60/18 19/61/19 20/62/20 23/63/23 24/64/24 21/65/21 22/66/22
f 11/67/11 16/68/16 23/69/23 20/70/20
f 38/9/38 53/12/53 56/71/56 39/72/39
f 3/39/3 8/8/8 40/7/40 29/40/29
f 26/73/26 41/74/41 44/75/44 27/76/27
f 7/5/7 6/77/6 36/78/36 37/6/37
f 10/54/10 43/53/43 42/79/42 9/80/9
f 30/23/30 39/72/39 56/71/56 45/24/45
f 26/81/26 31/22/31 48/21/48 41/82/41
f 36/78/36 6/77/6 5/1/5 33/4/33
f 54/51/54 51/48/51 14/47/14 15/52/15
f 46/35/46 55/50/55 16/49/16 11/36/11
f 42/83/42 47/38/47 12/37/12 9/84/9
f 15/41/15 24/44/24 23/69/23 16/68/16
f 19/57/19 12/56/12 11/67/11 20/70/20
f 9/85/9 18/86/18 17/29/17 10/28/10
f 21/43/21 14/42/14 13/27/13 22/30/22
f 34/25/34 27/76/27 44/75/44 49/26/49
f 38/87/38 39/88/39 65/89/65 66/90/66
f 30/91/30 31/92/31 67/93/67 68/94/68
f 26/95/26 27/96/27 69/97/69 70/98/70
f 34/99/34 35/100/35 71/101/71 72/102/72
f 54/103/54 55/104/55 56/105/56 53/106/53
f 46/107/46 47/108/47 48/109/48 45/110/45
f 42/111/42 43/112/43 44/113/44 41/114/41
f 50/115/50 51/116/51 52/117/52 49/118/49
f 27/96/27 34/99/34 72/102/72 69/97/69
f 31/92/31 26/119/26 70/120/70 67/93/67
f 39/88/39 30/91/30 68/94/68 65/89/65
f 35/100/35 38/87/38 66/90/66 71/101/71
f 43/112/43 50/115/50 49/118/49 44/113/44
f 47/108/47 42/121/42 41/122/41 48/109/48
f 55/104/55 46/107/46 45/110/45 56/105/56
f 51/116/51 54/103/54 53/106/53 52/117/52
f 1/123/1 25/124/25 28/3/28 2/2/2
f 7/125/7 8/126/8 57/127/57 58/128/58
f 3/129/3 4/130/4 59/131/59 60/132/60
f 1/133/1 2/134/2 61/135/61 62/136/62
f 5/137/5 6/138/6 63/139/63 64/140/64
f 2/134/2 5/137/5 64/140/64 61/135/61
f 4/130/4 1/133/1 62/136/62 59/131/59
f 6/138/6 7/125/7 58/128/58 63/139/63
f 8/126/8 3/129/3 60/132/60 57/127/57
f 40/141/40 37/142/37 66/143/66 65/144/65
f 32/145/32 29/146/29 68/147/68 67/148/67
f 28/149/28 25/150/25 70/151/70 69/152/69
f 36/153/36 33/154/33 72/155/72 71/156/71
f 33/154/33 28/149/28 69/152/69 72/155/72
f 25/150/25 32/145/32 67/148/67 70/151/70
f 29/146/29 40/141/40 65/144/65 68/147/68
f 37/142/37 36/153/36 71/156/71 66/143/66
